<?xml version="1.0" encoding="UTF-8" standalone="no"?>
<!-- Generator: Gravit.io -->
<svg xmlns="http://www.w3.org/2000/svg" xmlns:xlink="http://www.w3.org/1999/xlink" style="isolation:isolate" viewBox="0 0 550 450" width="550pt" height="450pt"><defs><clipPath id="_clipPath_NUdibdzqBU7jYqPMAncaFyHJxzK78RJg"><rect width="550" height="450"/></clipPath></defs><g clip-path="url(#_clipPath_NUdibdzqBU7jYqPMAncaFyHJxzK78RJg)"><circle vector-effect="non-scaling-stroke" cx="130" cy="135" r="20" fill="rgb(170,170,170)"/><circle vector-effect="non-scaling-stroke" cx="190" cy="134.99999999999997" r="20" fill="rgb(170,170,170)"/><circle vector-effect="non-scaling-stroke" cx="130" cy="195" r="20" fill="rgb(170,170,170)"/><circle vector-effect="non-scaling-stroke" cx="190" cy="194.99999999999994" r="20" fill="rgb(170,170,170)"/><circle vector-effect="non-scaling-stroke" cx="129.99999999999997" cy="255" r="20" fill="rgb(170,170,170)"/><circle vector-effect="non-scaling-stroke" cx="189.99999999999997" cy="254.9999999999999" r="20" fill="rgb(170,170,170)"/><circle vector-effect="non-scaling-stroke" cx="189.99999999999991" cy="315" r="20" fill="rgb(170,170,170)"/><circle vector-effect="non-scaling-stroke" cx="310" cy="134.99999999999994" r="20" fill="rgb(170,170,170)"/><circle vector-effect="non-scaling-stroke" cx="310" cy="194.9999999999999" r="20" fill="rgb(170,170,170)"/><circle vector-effect="non-scaling-stroke" cx="249.9999999999999" cy="255" r="20" fill="rgb(235,235,235)"/><circle vector-effect="non-scaling-stroke" cx="309.99999999999994" cy="254.9999999999999" r="20" fill="rgb(170,170,170)"/><circle vector-effect="non-scaling-stroke" cx="309.99999999999994" cy="314.9999999999999" r="20" fill="rgb(170,170,170)"/><circle vector-effect="non-scaling-stroke" cx="370" cy="134.9999999999999" r="20" fill="rgb(170,170,170)"/><circle vector-effect="non-scaling-stroke" cx="370" cy="194.9999999999999" r="20" fill="rgb(170,170,170)"/><circle vector-effect="non-scaling-stroke" cx="430" cy="194.99999999999983" r="20" fill="rgb(170,170,170)"/><circle vector-effect="non-scaling-stroke" cx="369.99999999999983" cy="254.99999999999983" r="20" fill="rgb(170,170,170)"/><circle vector-effect="non-scaling-stroke" cx="429.99999999999983" cy="254.99999999999983" r="20" fill="rgb(170,170,170)"/><circle vector-effect="non-scaling-stroke" cx="369.99999999999983" cy="314.9999999999999" r="20" fill="rgb(170,170,170)"/><circle vector-effect="non-scaling-stroke" cx="429.99999999999983" cy="314.9999999999998" r="20" fill="rgb(170,170,170)"/><path d=" M 260 395 L 90 395 L 50 355 L 50 55 L 90 55 L 90 335 L 110 355 L 220 355 L 260 395 Z " fill="rgb(33,118,183)"/><path d=" M 270 225 L 270 125 L 300 95 L 440 95 L 470 125 L 500 95 L 460 55 L 280 55 L 230 105 L 230 225 L 270 225 Z " fill="rgb(33,118,183)"/><path d=" M 270 285 L 270 325 L 300 355 L 440 355 L 470 325 L 500 355 L 460 395 L 280 395 L 230 345 L 230 285 L 270 285 Z " fill="rgb(33,118,183)"/><circle vector-effect="non-scaling-stroke" cx="249.9999999999999" cy="254.9999999999999" r="20" fill="rgb(170,170,170)"/><path d=" M 141.455 292.944 C 137.945 291.066 133.937 290 129.681 290 C 115.883 290 104.681 301.202 104.681 315 L 104.681 315 L 104.681 315 C 104.681 328.798 115.883 340 129.681 340 C 143.479 340 154.681 328.798 154.681 315 C 154.681 310.913 153.698 307.053 151.956 303.645 L 193.11 262.5 L 373.11 262.5 L 437.5 198.11 L 437.5 158.854 C 447.638 155.665 455 146.185 455 135 C 455 121.202 443.798 110 430 110 C 416.202 110 405 121.202 405 135 L 405 135 L 405 135 C 405 146.185 412.362 155.665 422.5 158.854 L 422.5 191.89 L 366.89 247.5 L 186.89 247.5 L 141.455 292.944 Z  M 114.68 315 C 114.68 311.02 116.26 307.21 119.07 304.39 C 121.89 301.58 125.7 300 129.68 300 C 133.66 300 137.48 301.58 140.29 304.39 C 143.1 307.21 144.68 311.02 144.68 315 L 144.68 315 C 144.68 318.98 143.1 322.79 140.29 325.61 C 137.48 328.42 133.66 330 129.68 330 C 125.7 330 121.89 328.42 119.07 325.61 C 116.26 322.79 114.68 318.98 114.68 315 L 114.68 315 L 114.68 315 Z  M 415 135 C 415 131.02 416.58 127.21 419.39 124.39 C 422.21 121.58 426.02 120 430 120 C 433.98 120 437.79 121.58 440.61 124.39 C 443.42 127.21 445 131.02 445 135 C 445 138.98 443.42 142.79 440.61 145.61 C 437.79 148.42 433.98 150 430 150 C 426.02 150 422.21 148.42 419.39 145.61 C 416.58 142.79 415 138.98 415 135 L 415 135 L 415 135 Z " fill-rule="evenodd" fill="rgb(245,138,19)"/></g></svg>